<svg width="18" height="17" viewBox="0 0 18 17" fill="none" xmlns="http://www.w3.org/2000/svg">
    <circle cx="9.05665" cy="8.06447" r="7.56447" fill="#CA0100" stroke="white"/>
    <g clip-path="url(#clip0_1565_18908)">
        <path d="M9.2243 10.7906C8.89157 11.1086 8.3517 11.1086 8.01913 10.7906L6.15189 9.00631C5.81916 8.68852 5.81916 8.17263 6.15189 7.85484C6.48445 7.53689 7.02433 7.53689 7.35705 7.85484L8.46956 8.91777C8.55355 8.99787 8.68988 8.99787 8.77403 8.91777L11.7864 6.03924C12.1189 5.7213 12.6588 5.7213 12.9915 6.03924C13.1513 6.19192 13.2411 6.39908 13.2411 6.61498C13.2411 6.83088 13.1513 7.03803 12.9915 7.19071L9.2243 10.7906Z" fill="white"/>
    </g>
    <defs>
        <clipPath id="clip0_1565_18908">
            <rect width="7.33875" height="7.01258" fill="white" transform="translate(5.90234 4.9082)"/>
        </clipPath>
    </defs>
</svg>
